# xmcd
#
# Track frame offsets:
#	150
#	10184
#	32423
#	43580
#	60368
#	69357
#	87035
#	101052
#	120653
#	130254
#	156488
#	172202
#	191861
#	200248
#	210844
#	220996
#	232484
#	241889
#	257051
#
# Disc length: 3592 seconds
#
# Revision: 2
# Processed by: cddbd v1.5.2PL0 Copyright (c) Steve Scherf et al.
# Submitted via: EZCDAudioConverter 8.1.0.1
#
DISCID=150e0613
DTITLE=Various Artist - Orthophonic Joy: The 1927 Bristol Sessions Revisited
DYEAR=2015
DGENRE=Country
TTITLE0=Eddie Stubbs - Singers Who Had Not Visited Bristol During Their Entire
TTITLE0=Lifetime Arrived
TTITLE1=The Church Sisters - Where We'll Never Grow Old
TTITLE2=Eddie Stubbs - Love, Loss, And The Perils Of The Moonshine Business
TTITLE3=Corbin Hayslett - Darling Cora
TTITLE4=Eddie Stubbs - Ramblers Riding The Longest Train I Ever Saw
TTITLE5=Brad Paisley and Carl Jackson - In The Pines
TTITLE6=Eddie Stubbs - Twenty-One Good Years At The Throttle
TTITLE7=Ashley Campbell and Shannon Campbell - The Wreck Of The Virginian
TTITLE8=Eddie Stubbs - Prized And Practical, Brutal Ballads
TTITLE9=Carl Jackson - Pretty Polly
TTITLE10=Eddie Stubbs - Tremendous Heart Punch And Appeal
TTITLE11=Sheryl Crow - The Wandering Boy
TTITLE12=Eddie Stubbs - Gotta Catch That Train
TTITLE13=Larry Cordle and The Virginia Luthiers - Train On The Island
TTITLE14=Eddie Stubbs - History Saws And Strums Along With Itself
TTITLE15=Jesse Mcreynolds and Carl Jackson - Johnny Goodwin - The Girl I Left Be
TTITLE15=hind
TTITLE16=Eddie Stubbs - Introducing The Orthophonic Choir
TTITLE17=The Chuck Wagon Gang - Shall We Gather At The River
TTITLE18=Eddie Stubbs - The Birthplace Of Country Music
EXTD=
EXTT0=
EXTT1=
EXTT2=
EXTT3=
EXTT4=
EXTT5=
EXTT6=
EXTT7=
EXTT8=
EXTT9=
EXTT10=
EXTT11=
EXTT12=
EXTT13=
EXTT14=
EXTT15=
EXTT16=
EXTT17=
EXTT18=
PLAYORDER=
